<?xml version="1.0" standalone="no"?>
<!DOCTYPE svg PUBLIC "-//W3C//DTD SVG 20010904//EN"
 "http://www.w3.org/TR/2001/REC-SVG-20010904/DTD/svg10.dtd">
<svg version="1.0" xmlns="http://www.w3.org/2000/svg"
 width="2048.000000pt" height="2048.000000pt" viewBox="0 0 2048.000000 2048.000000"
 preserveAspectRatio="xMidYMid meet">

<g transform="translate(0.000000,2048.000000) scale(0.100000,-0.100000)"
fill="#000000" stroke="none">
<path d="M9990 18863 c-1283 -46 -3041 -355 -4114 -723 -342 -117 -824 -339
-1061 -489 -498 -313 -773 -679 -904 -1201 -26 -101 -96 -621 -371 -2744
l-340 -2620 0 -3638 0 -3638 584 0 584 0 5 -648 c4 -547 7 -658 21 -722 46
-213 123 -365 255 -504 84 -88 165 -145 282 -201 389 -183 853 -117 1162 165
108 99 198 238 248 386 56 165 59 209 59 897 l0 627 3830 0 3829 0 3 -672 4
-673 26 -96 c33 -121 82 -227 148 -324 269 -389 834 -525 1287 -310 119 56
199 113 284 201 103 108 171 223 218 367 51 155 53 180 58 865 l5 642 584 0
584 0 0 3636 0 3635 -340 2622 c-220 1696 -350 2659 -366 2727 -132 555 -436
944 -988 1269 -224 132 -669 333 -951 430 -1270 438 -3412 778 -4625 734z
m3232 -1334 c80 -17 148 -53 202 -106 188 -187 159 -526 -57 -667 -109 -72
165 -66 -3157 -64 l-2995 3 -57 23 c-208 84 -309 364 -209 577 16 36 42 80 56
99 40 53 128 108 203 127 63 17 240 18 3014 18 2130 1 2962 -2 3000 -10z
m1656 -1724 c175 -29 314 -100 410 -211 63 -72 128 -212 163 -350 47 -186 579
-4018 579 -4169 0 -188 -46 -321 -145 -420 -62 -62 -131 -100 -231 -125 -76
-20 -130 -20 -5424 -20 -5294 0 -5348 0 -5424 20 -199 51 -317 174 -362 378
-33 149 -28 199 260 2257 147 1051 276 1955 288 2010 41 201 108 345 208 446
100 101 233 165 395 188 33 5 2114 9 4625 10 4030 1 4576 -1 4658 -14z m-9351
-7786 c313 -43 593 -247 733 -534 68 -139 91 -231 97 -391 12 -281 -75 -508
-271 -713 -380 -395 -1005 -397 -1391 -5 -114 116 -199 264 -247 429 -20 71
-23 101 -22 255 0 161 2 182 27 263 98 319 329 557 635 656 151 49 285 61 439
40z m9680 0 c313 -43 592 -246 734 -534 77 -157 92 -229 93 -425 1 -143 -2
-176 -22 -249 -74 -273 -256 -497 -502 -621 -553 -278 -1216 18 -1382 618 -18
64 -22 105 -22 247 -1 149 2 180 22 250 50 172 138 322 258 441 218 216 517
315 821 273z"/>
</g>
</svg>
