<svg width="35" height="35" viewBox="0 0 35 35" fill="none" xmlns="http://www.w3.org/2000/svg">
<g clip-path="url(#clip0_8_52)">
<path d="M6.95875 15.7958C5.62827 17.0973 4.80396 18.9159 4.80396 20.926C4.80396 22.9326 5.62827 24.7512 6.95875 26.0527C7.25163 26.342 7.72522 26.342 8.0181 26.0527C9.34858 24.7512 10.1729 22.9326 10.1729 20.926C10.1729 18.9158 9.34496 17.1009 8.0181 15.7993C7.72522 15.5065 7.25163 15.5065 6.95875 15.7958Z" fill="#D4F6ED"/>
<path d="M14.092 24.8416C12.0855 24.8416 10.2669 25.6659 8.96534 26.9964C8.6761 27.2892 8.6761 27.7628 8.96534 28.0557C10.2705 29.3862 12.0855 30.2105 14.092 30.2105C16.1022 30.2105 17.9172 29.3862 19.2223 28.0557C19.5115 27.7592 19.5115 27.2892 19.2223 26.9964C17.9135 25.6659 16.0986 24.8416 14.092 24.8416Z" fill="#D4F6ED"/>
<path d="M12.1469 10.6077C10.8164 11.9092 9.99207 13.7278 9.99207 15.7379C9.99207 17.7445 10.8164 19.5631 12.1469 20.8646C12.4397 21.1538 12.9133 21.1538 13.2062 20.8646C14.5367 19.5631 15.361 17.7445 15.361 15.7379C15.361 13.7277 14.5331 11.9128 13.2062 10.6112C12.9133 10.3184 12.4397 10.3184 12.1469 10.6077Z" fill="#D4F6ED"/>
<path d="M24.4068 21.8082C23.1016 20.4777 21.2867 19.6534 19.2801 19.6534C17.2736 19.6534 15.455 20.4777 14.1534 21.8082C13.8642 22.1011 13.8642 22.5747 14.1534 22.8675C15.4586 24.198 17.2736 25.0224 19.2801 25.0224C21.2903 25.0224 23.1052 24.198 24.4104 22.8675C24.696 22.5747 24.696 22.1047 24.4068 21.8082Z" fill="#D4F6ED"/>
<path d="M18.3944 5.42313C18.1015 5.1339 17.6279 5.1339 17.3351 5.42313C16.0046 6.72468 15.1802 8.54328 15.1802 10.5534C15.1802 12.56 16.0046 14.3785 17.3351 15.6801C17.6279 15.9693 18.1015 15.9693 18.3944 15.6801C19.7249 14.3785 20.5492 12.56 20.5492 10.5534C20.5492 8.53963 19.7249 6.72468 18.3944 5.42313Z" fill="#D4F6ED"/>
<path d="M24.4646 14.4653C22.4581 14.4653 20.6395 15.2896 19.338 16.6201C19.0487 16.913 19.0487 17.3866 19.338 17.6794C20.6432 19.0099 22.4581 19.8343 24.4646 19.8343C26.4748 19.8343 28.2898 19.0099 29.5949 17.6794C29.8841 17.383 29.8841 16.913 29.5949 16.6201C28.2898 15.2932 26.4748 14.4653 24.4646 14.4653Z" fill="#D4F6ED"/>
<path d="M23.5825 0.234992C23.2896 -0.054242 22.816 -0.054242 22.5232 0.234992C21.1927 1.53654 20.3683 3.35514 20.3683 5.36528C20.3683 7.37184 21.1927 9.19039 22.5232 10.4919C22.816 10.7812 23.2896 10.7812 23.5825 10.4919C24.913 9.19039 25.7373 7.37184 25.7373 5.36528C25.7373 3.35514 24.9094 1.53654 23.5825 0.234992Z" fill="#D4F6ED"/>
<path d="M29.6527 9.27719C27.6462 9.27719 25.8276 10.1015 24.5261 11.432C24.2368 11.7249 24.2368 12.1985 24.5261 12.4913C25.8313 13.8218 27.6462 14.6461 29.6527 14.6461C31.6629 14.6461 33.4779 13.8218 34.783 12.4913C35.0723 12.1949 35.0723 11.7249 34.783 11.432C33.4779 10.1051 31.6629 9.28077 29.6527 9.27719Z" fill="#D4F6ED"/>
<path d="M28.9803 2.23436C27.5594 3.65522 26.8617 5.52074 26.8797 7.38634C26.8834 7.79846 27.216 8.13112 27.6281 8.1347C29.49 8.15277 31.3592 7.455 32.7801 6.03413C34.201 4.61327 34.8987 2.7441 34.8807 0.882158C34.877 0.469999 34.5444 0.137381 34.1323 0.133765C32.2703 0.115688 30.4012 0.813465 28.9803 2.23436Z" fill="#D4F6ED"/>
<path d="M0.776376 34.6646C1.19938 35.0876 1.88631 35.0876 2.30931 34.6646L7.28775 29.6862C7.71076 29.2632 7.71076 28.5763 7.28775 28.1533L6.82859 27.6941C6.40559 27.2711 5.71866 27.2711 5.29565 27.6941L0.317253 32.669C-0.105751 33.0919 -0.105751 33.7789 0.317253 34.2019L0.776376 34.6646Z" fill="#D4F6ED"/>
</g>
<defs>
<clipPath id="clip0_8_52">
<rect width="35" height="35" fill="white"/>
</clipPath>
</defs>
</svg>
