<svg width="35" height="35" viewBox="0 0 35 35" fill="none" xmlns="http://www.w3.org/2000/svg">
<path d="M34.7763 10.9295C33.7572 10.3182 29.6965 14.0557 28.5244 15.6186C24.6168 13.2737 21.1004 11.7109 21.1004 11.7109C21.1004 11.7109 22.6633 4.87327 20.514 5.2634C18.5564 5.61968 14.9315 8.17263 11.9179 10.5388C6.83819 11.9066 0.694805 15.3867 0 18.7442C1.95351 25.1917 13.0901 28.3174 19.7326 29.6851C23.0023 30.3586 21.1004 25.778 21.1004 25.778C21.1004 25.778 24.6168 24.2147 28.5244 21.8704C29.6965 23.4332 33.7572 27.1707 34.7763 26.5595C35.7533 25.9731 33.2134 18.7442 33.2134 18.7442C33.2134 18.7442 35.7533 11.5159 34.7763 10.9295ZM6.95147 19.0904C6.06095 19.0904 5.33941 18.3688 5.33941 17.4783C5.33941 16.5884 6.06095 15.8669 6.95147 15.8669C7.84137 15.8669 8.5629 16.5884 8.5629 17.4783C8.5629 18.3688 7.84137 19.0904 6.95147 19.0904Z" fill="white"/>
</svg>
