<svg width="35" height="35" viewBox="0 0 35 35" fill="none" xmlns="http://www.w3.org/2000/svg">
<g clip-path="url(#clip0_8_92)">
<path d="M20.4531 18.1093C20.6109 18.1859 20.5555 18.1587 20.4531 18.1093V18.1093Z" fill="#FFE1CC"/>
<path d="M20.2145 17.9933C20.2294 18.0003 20.2524 18.0117 20.286 18.0279C20.2885 18.0291 20.2907 18.0305 20.2932 18.0316C20.2578 18.0145 20.2321 18.0019 20.2145 17.9933Z" fill="#FFE1CC"/>
<path d="M20.215 17.9936C20.1932 17.9826 20.1865 17.9795 20.215 17.9936V17.9936Z" fill="#FFE1CC"/>
<path d="M20.3351 18.0518C20.3205 18.0448 20.3099 18.0397 20.2937 18.0317C20.2906 18.0302 20.289 18.0293 20.286 18.0279C19.8459 17.8127 19.4392 17.558 19.0543 17.2806L18.2287 18.1062L17.5699 18.765L15.6683 16.8634L16.3215 16.2103L17.1471 15.3846C16.3749 14.3137 15.87 13.0764 15.6596 11.78H13.5628V9.0905H15.6546C15.8649 7.78662 16.3815 6.56136 17.1522 5.49156L17.0725 5.41186L15.6677 4.0071L17.5693 2.10552L19.0482 3.58446C20.1191 2.81218 21.3564 2.30728 22.6527 2.09694V0H25.3438V2.09182C26.6472 2.30216 27.8729 2.81868 28.9427 3.58938L30.4268 2.10542L32.3284 4.007L30.8494 5.48594C31.6217 6.55683 32.1266 7.79411 32.337 9.0905H34.4338V11.78H32.342C32.1317 13.0839 31.6151 14.3092 30.8444 15.379L32.3284 16.8629L30.4268 18.7645L29.0175 17.3552L28.9479 17.2856C27.877 18.0579 26.6397 18.5628 25.3433 18.7731V20.8699H22.6538V18.7781C21.8543 18.649 21.0599 18.4048 20.2942 18.0316C20.3073 18.0382 20.3209 18.0448 20.3351 18.0518ZM22.4505 13.6095C24.1807 14.4534 26.33 13.7134 27.1734 11.9833C27.304 11.7154 27.3696 11.5807 27.3989 11.5207C27.3601 11.5999 27.2682 11.7881 27.1734 11.9833C28.0173 10.2531 27.2773 8.10385 25.5471 7.26044C23.817 6.41654 21.6677 7.15651 20.8243 8.88667C19.9804 10.6168 20.7204 12.7656 22.4505 13.6095Z" fill="#FFE1CC"/>
<path d="M2.90419 27.3012C2.49465 26.0654 2.36697 24.7358 2.56066 23.4162L0.566174 22.7872L1.37471 20.2218L3.37313 20.8518C3.98443 19.6331 4.85257 18.6284 5.87902 17.8657L4.91109 16.0065L7.29698 14.7647L8.26443 16.6234C9.50023 16.2139 10.8298 16.0862 12.1494 16.2799L12.7784 14.2855L15.3433 15.0945L14.7133 17.093C15.9319 17.7049 16.9367 18.5724 17.6993 19.5989L19.5586 18.6309L20.8004 21.0168L18.9416 21.9843C19.3512 23.2201 19.4789 24.5497 19.2852 25.8692L21.2797 26.4982L20.4711 29.0631L18.57 28.4639L18.4722 28.4331C17.8603 29.6518 16.9928 30.6566 15.9663 31.4192L16.9343 33.2784L14.5484 34.5202L14.0061 33.4786L13.5809 32.662C12.3451 33.0715 11.0155 33.1997 9.69598 33.0055L9.34743 34.1117L9.06744 34.9999L6.50254 34.1914L6.78046 33.3101L7.13256 32.1928C5.9139 31.5809 4.90912 30.7134 4.14649 29.687L2.28727 30.6549L1.04546 28.269L2.3257 27.6026L2.90419 27.3012ZM8.63731 27.333C8.61919 27.3184 8.60096 27.3032 8.58786 27.2926C8.59791 27.3012 8.61515 27.3147 8.63731 27.333ZM8.6918 27.3773C10.1824 28.5905 12.4365 28.369 13.6577 26.8744C14.8718 25.3854 14.6488 23.1301 13.1568 21.91C11.6652 20.6974 9.41304 20.9143 8.18985 22.4104C6.97119 23.8974 7.20024 26.1586 8.6918 27.3773Z" fill="#FFE1CC"/>
</g>
<defs>
<clipPath id="clip0_8_92">
<rect width="35" height="35" fill="white" transform="matrix(-1 0 0 1 35 0)"/>
</clipPath>
</defs>
</svg>
