<svg width="35" height="35" viewBox="0 0 35 35" fill="none" xmlns="http://www.w3.org/2000/svg">
<g clip-path="url(#clip0_8_160)">
<path d="M34.8738 21.5193L27.6946 12.034L28.6331 11.0956C28.8511 10.8776 28.8511 10.524 28.6331 10.306L28.0461 9.71907L29.5021 8.26308C29.7747 7.99053 29.7747 7.54852 29.5021 7.27583L27.7242 5.49788C27.4516 5.22533 27.0096 5.22533 26.737 5.49788L25.2809 6.95386L24.6837 6.35667C24.4657 6.13868 24.1121 6.13868 23.8941 6.35667L22.9543 7.29648L13.4807 0.126127C13.2712 -0.0324667 12.9778 -0.0461386 12.7675 0.111361C12.5033 0.309193 12.4577 0.67642 12.6501 0.930649L19.8317 10.4191L18.6074 11.6435C18.3894 11.8614 18.3894 12.215 18.6074 12.433L22.5567 16.3823C22.7747 16.6003 23.1282 16.6003 23.3462 16.3823L24.5692 15.1594L34.0693 22.3498C34.3236 22.5423 34.6909 22.4967 34.8886 22.2325C35.0461 22.0221 35.0324 21.7288 34.8738 21.5193Z" fill="white"/>
<path d="M17.5569 14.6779L0.204461 32.0305C-0.0680876 32.303 -0.0680876 32.745 0.204461 33.0177L1.98242 34.7956C2.25497 35.0682 2.69698 35.0682 2.96967 34.7956L20.3221 17.443L17.5569 14.6779Z" fill="white"/>
</g>
<defs>
<clipPath id="clip0_8_160">
<rect width="35" height="35" fill="white"/>
</clipPath>
</defs>
</svg>
