<svg width="35" height="35" viewBox="0 0 35 35" fill="none" xmlns="http://www.w3.org/2000/svg">
<g clip-path="url(#clip0_8_129)">
<path d="M14.5906 0.0218669C14.134 0.0492107 13.7566 0.298039 13.4531 1.07187C13.2918 1.48202 12.95 2.49101 12.6219 3.45624C12.4551 3.9457 12.2992 4.3914 12.1844 4.72499C12.1734 4.7578 12.1898 4.79882 12.1844 4.83437C12.1789 4.84804 12.1461 4.86445 12.1406 4.87812L12.075 5.07499C12.9965 5.35937 13.6773 5.64101 13.7375 5.66562C15.8184 6.45312 19.8461 8.29335 23.2969 11.7469C26.95 15.4 28.8285 19.7859 29.4656 21.5031C29.4793 21.5332 29.6625 22.0746 29.925 22.9906C29.9305 22.9879 29.9441 22.9934 29.9469 22.9906C30.3406 22.8648 31.4672 22.4656 32.4187 22.1375C32.9766 21.9461 33.466 21.782 33.7094 21.7C34.3027 21.5004 34.6801 21.2051 34.8687 20.7812C35.0519 20.3766 35.0465 19.9008 34.825 19.3812C34.7238 19.1434 34.609 18.8426 34.475 18.5062C33.5152 16.1055 31.5055 11.118 27.7156 7.32812C23.5293 3.13905 18.0551 0.847648 15.4875 0.153117C15.1539 0.0628826 14.8641 0.00546065 14.5906 0.0218669ZM11.5281 6.36562L0.0437437 34.0375C-0.0656313 34.2973 -0.00274065 34.6035 0.196869 34.8031C0.330853 34.9371 0.51679 35 0.699994 35C0.790228 35 0.877728 34.9918 0.962494 34.9562L28.6344 23.5156C28.3664 22.5695 28.1558 22.0144 28.1531 22.0062C27.5461 20.3629 25.7715 16.1902 22.3125 12.7312C18.9246 9.34062 14.8176 7.56327 13.2125 6.95624C13.1906 6.94804 12.4687 6.64999 11.5281 6.36562ZM11.9 11.2C13.8332 11.2 15.4 12.7668 15.4 14.7C15.4 16.6332 13.8332 18.2 11.9 18.2C10.5984 18.2 9.48554 17.4809 8.88124 16.4281L10.9812 11.3312C11.2711 11.2519 11.5855 11.2 11.9 11.2ZM21.7 15.4C22.8594 15.4 23.8 16.3406 23.8 17.5C23.8 18.1426 23.5101 18.7113 23.0562 19.0969H23.0344C23.4992 19.5973 23.8 20.2644 23.8 21C23.8 22.5476 22.5476 23.8 21 23.8C19.4523 23.8 18.2 22.5476 18.2 21C18.2 19.8516 18.8973 18.8726 19.8844 18.4406L19.8187 18.4187C19.682 18.1426 19.6 17.8309 19.6 17.5C19.6 16.3406 20.5406 15.4 21.7 15.4ZM14.7 22.4C16.2476 22.4 17.5 23.6523 17.5 25.2C17.5 25.7988 17.2976 26.3621 16.975 26.8187L14.2187 27.9562C12.9008 27.7266 11.9 26.5836 11.9 25.2C11.9 23.6523 13.1523 22.4 14.7 22.4ZM6.29999 23.8C7.45937 23.8 8.39999 24.7406 8.39999 25.9C8.39999 27.0594 7.45937 28 6.29999 28C5.53163 28 4.87265 27.5898 4.50624 26.9719L5.77499 23.8656C5.94179 23.8219 6.11952 23.8 6.29999 23.8Z" fill="#FFEFB7"/>
</g>
<defs>
<clipPath id="clip0_8_129">
<rect width="35" height="35" fill="white"/>
</clipPath>
</defs>
</svg>
