<svg width="35" height="35" viewBox="0 0 35 35" fill="none" xmlns="http://www.w3.org/2000/svg">
<path d="M32.0833 12.1334V26.25C32.0833 27.0236 31.776 27.7654 31.229 28.3124C30.6821 28.8594 29.9402 29.1667 29.1667 29.1667H5.83332C5.05977 29.1667 4.31791 28.8594 3.77093 28.3124C3.22395 27.7654 2.91666 27.0236 2.91666 26.25V12.6729L5.83332 14.2625L16.8 20.2417C17.015 20.3577 17.2557 20.4179 17.5 20.4167C17.7568 20.414 18.0083 20.3436 18.2292 20.2125L29.1667 13.8396L32.0833 12.1334Z" fill="#76ABFF"/>
<path d="M32.0833 8.74998L29.1667 10.4708L17.5 17.2812L5.83332 10.9375L2.91666 9.33331V8.74998C2.91666 7.97643 3.22395 7.23457 3.77093 6.68758C4.31791 6.1406 5.05977 5.83331 5.83332 5.83331H29.1667C29.9402 5.83331 30.6821 6.1406 31.229 6.68758C31.776 7.23457 32.0833 7.97643 32.0833 8.74998Z" fill="#76ABFF"/>
</svg>
