<svg width="35" height="35" viewBox="0 0 35 35" fill="none" xmlns="http://www.w3.org/2000/svg">
<path d="M2.91669 16.0417C2.91669 16.8471 3.56961 17.5 4.37502 17.5H8.75002V13.125C8.75002 12.3196 8.09711 11.6667 7.29169 11.6667H4.37502C3.56961 11.6667 2.91669 12.3196 2.91669 13.125V16.0417Z" fill="white"/>
<path d="M14.5833 17.5H20.4166V13.125C20.4166 12.3196 19.7638 11.6667 18.9583 11.6667H16.0416C15.2362 11.6667 14.5833 12.3196 14.5833 13.125V17.5Z" fill="white"/>
<path d="M8.75 21.875C8.75 22.6804 9.40292 23.3333 10.2083 23.3333H13.125C13.9304 23.3333 14.5833 22.6804 14.5833 21.875V17.5H8.75V21.875Z" fill="white"/>
<path d="M26.25 17.5H30.625C31.4304 17.5 32.0833 16.8471 32.0833 16.0417V13.125C32.0833 12.3196 31.4304 11.6667 30.625 11.6667H27.7083C26.9029 11.6667 26.25 12.3196 26.25 13.125V17.5Z" fill="white"/>
<path d="M20.4167 21.875C20.4167 22.6804 21.0696 23.3333 21.875 23.3333H24.7917C25.5971 23.3333 26.25 22.6804 26.25 21.875V17.5H20.4167V21.875Z" fill="white"/>
<path d="M2.91669 27.7083C2.91669 26.9029 3.56961 26.25 4.37502 26.25H30.625C31.4305 26.25 32.0834 26.9029 32.0834 27.7083C32.0834 28.5138 31.4305 29.1667 30.625 29.1667H4.37502C3.56961 29.1667 2.91669 28.5138 2.91669 27.7083Z" fill="white"/>
<path d="M2.91669 7.29165C2.91669 6.48624 3.56961 5.83331 4.37502 5.83331H30.625C31.4305 5.83331 32.0834 6.48624 32.0834 7.29165C32.0834 8.09705 31.4305 8.74998 30.625 8.74998H4.37502C3.56961 8.74998 2.91669 8.09705 2.91669 7.29165Z" fill="white"/>
</svg>
