<?xml version="1.0" standalone="no"?>
<!DOCTYPE svg PUBLIC "-//W3C//DTD SVG 20010904//EN"
 "http://www.w3.org/TR/2001/REC-SVG-20010904/DTD/svg10.dtd">
<svg version="1.0" xmlns="http://www.w3.org/2000/svg"
 width="360.000000pt" height="360.000000pt" viewBox="0 0 360.000000 360.000000"
 preserveAspectRatio="xMidYMid meet">

<g transform="translate(0.000000,360.000000) scale(0.100000,-0.100000)"
fill="#000000" stroke="none">
<path d="M1557 2473 c-4 -3 -7 -70 -7 -149 0 -117 -3 -143 -15 -148 -13 -5
-15 -45 -15 -281 0 -240 -2 -275 -15 -275 -14 0 -15 43 -13 365 2 201 3 365 2
365 0 0 -126 -73 -280 -162 -153 -89 -307 -177 -341 -196 l-63 -36 0 -258 0
-258 25 0 c15 0 26 -6 26 -15 1 -8 2 -21 3 -27 0 -7 13 -14 27 -16 24 -3 25
-5 21 -55 -2 -31 2 -69 11 -94 8 -23 12 -45 9 -48 -3 -3 -29 -5 -59 -5 -52 0
-53 0 -53 -30 l0 -30 985 0 985 0 0 30 c0 29 -1 30 -50 30 -27 0 -50 3 -50 8
0 26 23 82 34 82 7 0 22 10 34 23 27 29 32 121 7 131 -8 3 -202 5 -432 6 -258
0 -421 4 -427 10 -6 6 -6 10 0 10 5 0 198 0 429 0 l420 0 -5 69 c-4 59 -9 74
-33 99 -16 16 -43 38 -61 47 -31 17 -34 23 -42 89 l-9 71 -90 22 c-49 12 -106
24 -125 27 -36 6 -36 7 -46 71 -5 36 -6 69 -2 73 11 11 -9 77 -27 92 -8 7 -15
20 -15 29 0 25 -48 95 -81 116 -26 18 -28 26 -31 85 -3 57 -5 65 -23 65 -17 0
-20 -8 -23 -58 l-3 -59 -37 6 c-80 13 -452 56 -481 56 l-31 0 0 65 c0 48 -4
65 -13 65 -8 0 -17 -3 -20 -7z m331 -177 c203 -26 280 -39 305 -53 32 -19 77
-76 77 -97 0 -13 -390 8 -453 25 -23 6 -43 20 -54 37 -23 37 -75 92 -87 92 -5
0 4 -15 21 -32 30 -32 53 -75 53 -102 0 -7 -18 -23 -41 -35 -53 -30 -45 -37
13 -11 45 20 49 20 309 4 145 -9 267 -19 270 -23 4 -3 10 -19 13 -35 l7 -29
-123 6 c-194 10 -465 17 -445 11 14 -5 17 -18 17 -96 0 -82 2 -89 18 -83 38
16 69 16 330 0 289 -17 447 -42 469 -72 9 -12 13 -62 13 -165 0 -81 0 -151 0
-155 0 -5 -5 -8 -11 -8 -8 0 -13 47 -17 150 -2 83 -8 157 -13 166 -12 23 -61
29 -237 29 -120 0 -157 -3 -168 -14 -9 -9 -10 -17 -4 -21 6 -4 10 -53 10 -118
-1 -87 -3 -108 -12 -92 -39 72 -111 114 -206 120 -67 5 -67 5 -34 -10 42 -20
62 -66 62 -145 l0 -60 -39 0 c-33 0 -40 4 -45 24 -3 14 -18 38 -32 55 -54 65
-129 27 -154 -78 l-12 -51 -49 0 -49 0 0 443 c0 244 3 447 7 450 8 9 -22 12
291 -27z m-518 -80 c-13 -12 -342 -204 -477 -279 l-53 -29 0 25 c0 22 27 38
268 160 147 75 269 136 272 136 2 1 -2 -5 -10 -13z m-5 -100 c-11 -7 -42 -24
-70 -37 -27 -13 -139 -69 -248 -126 -109 -57 -200 -103 -203 -103 -2 0 -4 11
-4 24 0 26 5 28 285 149 83 36 170 74 195 86 52 24 73 27 45 7z m10 -85 c-6
-6 -68 -37 -140 -69 -71 -33 -166 -76 -210 -97 -44 -21 -104 -48 -133 -61
l-53 -24 3 26 c3 24 16 31 158 86 85 33 202 79 260 102 111 46 130 52 115 37z
m945 -45 c0 -7 3 -34 6 -60 l7 -46 -47 0 -46 0 0 50 c0 43 3 52 23 60 33 13
57 12 57 -4z m-941 -51 c-3 -2 -99 -42 -215 -89 -115 -46 -235 -96 -267 -110
l-57 -25 0 27 c0 27 5 29 258 114 235 79 294 96 281 83z m-1 -96 c-9 -5 -51
-21 -92 -35 -41 -13 -158 -55 -260 -93 l-186 -68 0 26 c0 25 5 27 228 90 125
35 243 70 262 77 44 16 73 18 48 3z m1094 -69 c45 0 78 -4 78 -10 0 -6 -68
-10 -185 -10 -165 0 -185 2 -185 17 0 14 12 15 107 10 58 -4 141 -7 185 -7z
m-1094 -26 c-4 -3 -64 -23 -135 -44 -70 -21 -187 -56 -260 -79 -73 -23 -135
-41 -138 -41 -3 0 -5 11 -5 24 0 23 7 26 98 46 53 12 167 39 252 60 152 37
199 46 188 34z m1172 -18 c0 -10 -10 -13 -32 -12 -18 2 -102 4 -185 5 -95 0
-153 5 -153 11 0 6 68 10 185 10 153 0 185 -2 185 -14z m-71 -26 c58 0 82 -3
75 -10 -7 -7 -77 -9 -189 -8 -143 2 -179 6 -183 17 -4 12 13 13 103 8 60 -4
147 -7 194 -7z m76 -40 c4 -7 -60 -10 -184 -10 -121 0 -191 4 -191 10 0 6 68
10 184 10 113 0 187 -4 191 -10z m-1180 -9 c-6 -4 -122 -36 -260 -71 -137 -34
-256 -65 -262 -67 -9 -3 -13 4 -13 21 0 14 1 26 3 26 1 0 119 22 262 49 301
57 282 54 270 42z m1063 -18 c67 -3 122 -10 122 -15 0 -10 -194 -11 -303 -2
-43 4 -77 11 -77 15 0 11 93 11 258 2z m-344 -39 c11 -4 16 -19 16 -49 0 -45
-10 -55 -55 -55 -45 0 -55 10 -55 54 0 24 3 46 7 49 8 9 66 9 87 1z m466 -4
c0 -6 -70 -10 -190 -10 -120 0 -190 4 -190 10 0 6 70 10 190 10 120 0 190 -4
190 -10z m153 3 c13 -3 17 -15 17 -48 0 -25 -5 -45 -12 -48 -11 -4 -60 -3 -90
2 -9 1 -11 85 -2 94 7 7 62 7 87 0z m-220 -30 c37 -3 67 -10 67 -14 0 -11 -92
-11 -258 -2 -67 3 -122 10 -122 15 0 9 214 11 313 1z m-1108 -9 c-13 -5 -521
-104 -535 -104 -5 0 -10 10 -10 23 0 23 4 24 158 42 86 10 193 24 237 30 76
12 171 18 150 9z m1001 -24 c109 0 174 -4 174 -10 0 -6 -70 -10 -190 -10 -168
0 -190 2 -190 16 0 11 5 14 16 10 9 -3 94 -6 190 -6z m174 -45 c0 -12 -14 -15
-62 -15 -124 0 -318 13 -318 22 0 4 86 8 190 8 162 0 190 -2 190 -15z m-1060
-24 c0 -6 -4 -13 -10 -16 -15 -9 -12 -79 5 -101 21 -28 18 -34 -15 -34 -19 0
-33 7 -40 19 -12 23 -13 71 -2 71 5 0 16 16 25 35 15 32 37 47 37 26z m-278
-52 c-3 -31 1 -48 17 -70 l22 -29 -51 0 c-50 0 -50 0 -50 33 -1 17 -7 43 -15
57 -8 14 -14 28 -15 32 0 8 26 15 65 17 30 1 30 0 27 -40z m553 -86 c8 -43 32
-66 62 -58 24 6 24 5 8 -25 -9 -17 -22 -33 -30 -36 -62 -24 -108 140 -62 221
11 18 12 15 15 -25 1 -25 4 -59 7 -77z m409 43 c1 -28 -3 -36 -16 -36 -11 0
-18 8 -18 20 0 19 -7 20 -120 20 -108 0 -120 2 -120 18 0 15 13 17 136 16
l137 -2 1 -36z m306 2 c0 -27 -4 -38 -15 -38 -8 0 -15 9 -15 20 0 19 -7 20
-120 20 -108 0 -120 2 -120 18 0 15 13 17 135 17 l135 0 0 -37z m268 -1 c3
-32 0 -37 -17 -37 -14 0 -21 6 -21 20 0 19 -7 20 -90 20 -79 0 -90 2 -90 18 0
15 11 17 108 16 l107 -1 3 -36z m-1793 -30 c0 -47 6 -71 23 -100 23 -36 23
-37 3 -37 -30 0 -55 54 -54 118 1 41 14 82 27 82 0 0 1 -28 1 -63z m104 -66
c9 -15 19 -21 32 -18 23 6 25 -15 3 -37 -25 -26 -44 -18 -64 27 -23 49 -24 68
-8 122 l12 40 6 -55 c4 -31 12 -66 19 -79z m295 119 c15 0 26 -10 36 -32 7
-18 15 -36 18 -40 2 -5 -28 -8 -66 -8 l-70 0 -6 35 c-9 46 0 58 36 51 17 -3
40 -6 52 -6z m324 -7 c-3 -15 -16 -19 -76 -21 -67 -3 -72 -1 -72 18 0 18 6 20
76 20 66 0 75 -2 72 -17z m764 -140 c3 -16 9 -36 13 -45 7 -17 -9 -18 -245
-18 -236 0 -252 1 -245 18 3 9 9 29 12 45 l6 27 227 0 228 0 4 -27z m-1083
-32 c6 -10 7 -21 4 -25 -10 -10 -153 -7 -153 3 0 34 13 41 76 41 52 0 65 -3
73 -19z m341 10 c0 -5 3 -16 6 -25 5 -13 -2 -16 -40 -16 -46 0 -51 5 -40 34 7
17 74 23 74 7z"/>
<path d="M1862 2262 c22 -28 28 -30 122 -37 50 -3 99 -9 109 -11 23 -7 22 13
-2 26 -11 5 -55 15 -98 20 -43 5 -93 12 -111 14 -30 5 -32 3 -20 -12z"/>
<path d="M1678 2004 c-27 -14 -28 -18 -28 -94 l0 -79 45 22 46 22 -3 70 c-3
77 -12 86 -60 59z"/>
<path d="M2108 1803 c7 -3 16 -2 19 1 4 3 -2 6 -13 5 -11 0 -14 -3 -6 -6z"/>
<path d="M1712 1748 c-7 -7 -12 -41 -12 -82 0 -68 0 -69 20 -51 16 14 20 31
20 82 0 63 -6 73 -28 51z"/>
<path d="M1630 1624 c0 -34 4 -53 10 -49 6 3 10 28 10 56 0 27 -4 49 -10 49
-5 0 -10 -25 -10 -56z"/>
<path d="M2048 1573 c28 -4 32 -8 32 -34 0 -17 4 -28 8 -25 5 3 7 19 4 36 -4
27 -7 30 -41 28 l-36 -1 33 -4z"/>
<path d="M2667 1573 c27 -4 32 -9 36 -36 4 -31 4 -31 5 6 2 37 2 37 -35 35
-37 -1 -37 -1 -6 -5z"/>
</g>
</svg>
